<svg xmlns="http://www.w3.org/2000/svg" width="48" height="48" viewBox="0 0 256 256"><path fill-opacity=".639" stroke-miterlimit="10" d="M40.227 12C51.146 12 52 12.854 52 23.773v16.453C52 51.145 51.146 52 40.227 52h-2.089V37.438h5.134l.807-5.77h-5.941s-.009-3.378 0-4.221c.017-1.649 1.394-2.483 2.577-2.471 1.183.012 3.634.004 3.634.004v-5.317s-2.123-.275-4.349-.298c-1.871-.019-3.937.487-5.604 2.167-1.696 1.709-1.963 4.254-1.996 7.364-.009.9 0 2.772 0 2.772h-5.024v5.77H32.4V52h-8.626C12.854 52 12 51.145 12 40.227V23.773C12 12.854 12.854 12 23.773 12z" font-family="none" font-size="none" font-weight="none" style="mix-blend-mode:normal" text-anchor="none" transform="matrix(6.48 0 0 6.48 -79.36 -79.36)"/></svg>