<svg xmlns="http://www.w3.org/2000/svg" xmlns:xlink="http://www.w3.org/1999/xlink" viewBox="0,0,256,256" width="48px" height="48px"><g transform="translate(-79.36,-79.36) scale(1.62,1.62)"><g fill-opacity="0.63922" fill="#000000" fill-rule="nonzero" stroke="none" stroke-width="1" stroke-linecap="butt" stroke-linejoin="miter" stroke-miterlimit="10" stroke-dasharray="" stroke-dashoffset="0" font-family="none" font-weight="none" font-size="none" text-anchor="none" style="mix-blend-mode: normal"><g transform="scale(4,4)"><path d="M40.227,12c10.919,0 11.773,0.854 11.773,11.773v16.453c0,10.919 -0.854,11.774 -11.773,11.774h-2.089v-14.562h5.134l0.807,-5.77h-5.941c0,0 -0.009,-3.378 0,-4.221c0.017,-1.649 1.394,-2.483 2.577,-2.471c1.183,0.012 3.634,0.004 3.634,0.004v-5.317c0,0 -2.123,-0.275 -4.349,-0.298c-1.871,-0.019 -3.937,0.487 -5.604,2.167c-1.696,1.709 -1.963,4.254 -1.996,7.364c-0.009,0.9 0,2.772 0,2.772h-5.024v5.77h5.024v14.562h-8.626c-10.92,0 -11.774,-0.855 -11.774,-11.773v-16.454c0,-10.919 0.854,-11.773 11.773,-11.773z"></path></g></g></g></svg>