<svg xmlns="http://www.w3.org/2000/svg" width="97" height="26" fill="none"><path fill="#24053E" fill-rule="evenodd" d="M67.275 25v-5.344l1.92-2.112L73.643 25h5.44l-6.304-10.432 6.336-7.04h-5.92l-5.92 6.304V.776h-4.8V25h4.8Zm-23.72-.8c-1.407.79-2.975 1.184-4.703 1.184-1.728 0-3.302-.395-4.72-1.184a9.097 9.097 0 0 1-3.392-3.248c-.843-1.376-1.264-2.939-1.264-4.688 0-1.77.42-3.339 1.264-4.704a9.137 9.137 0 0 1 3.392-3.232c1.418-.79 2.992-1.184 4.72-1.184 1.728 0 3.296.395 4.704 1.184a9.173 9.173 0 0 1 3.376 3.232c.842 1.365 1.264 2.933 1.264 4.704 0 1.75-.422 3.312-1.264 4.688a9.133 9.133 0 0 1-3.376 3.248ZM14.593 13.8 10.528 25h-4.16L.352 7.528h4.96l3.392 10.144 3.808-10.144h4.16l3.776 10.144L23.84 7.528h4.992L22.784 25h-4.16l-4.032-11.2Zm24.26 7.264c-1.302 0-2.363-.448-3.184-1.344-.822-.896-1.232-2.048-1.232-3.456 0-1.387.41-2.534 1.232-3.44.82-.907 1.882-1.36 3.184-1.36 1.3 0 2.357.453 3.168 1.36.81.906 1.216 2.053 1.216 3.44 0 1.408-.406 2.56-1.216 3.456-.811.896-1.867 1.344-3.168 1.344Zm16.515-5.472V25h-4.8V7.528h4.48v2.624c.448-1.088 1.083-1.83 1.904-2.224.821-.395 1.765-.592 2.832-.592h1.024v4.16h-1.504c-1.173 0-2.123.357-2.848 1.072-.725.715-1.088 1.723-1.088 3.024ZM83.598 1.16v3.52h-1.92V1.16h1.92Zm0 23.84V8.008h-1.92V25h1.92Zm11.716.16c-.299.021-.534.032-.704.032-1.43 0-2.523-.4-3.28-1.2-.758-.8-1.136-1.968-1.136-3.504V9.832h-3.2V8.008h1.216c.618 0 1.104-.192 1.456-.576.352-.384.528-.907.528-1.568V4.04h1.92v3.968h3.712v1.824h-3.712v10.656c0 .47.07.928.208 1.376.138.448.41.81.816 1.088.405.277.992.416 1.76.416a11.413 11.413 0 0 0 1.216-.096v1.76a4.193 4.193 0 0 1-.8.128Z" clip-rule="evenodd"/></svg>