<svg xmlns="http://www.w3.org/2000/svg" width="125" height="181" fill="none"><path stroke="#44FFA1" d="M78.378 103.201c12.77 8.614 22.564 18.987 28.086 28.774 5.539 9.815 6.708 18.892 2.548 25.06-4.161 6.169-13.015 8.485-24.19 7.026-11.143-1.454-24.43-6.649-37.2-15.262-12.77-8.614-22.564-18.987-28.086-28.774-5.539-9.815-6.708-18.892-2.548-25.06 4.161-6.169 13.015-8.485 24.19-7.026 11.143 1.454 24.43 6.65 37.2 15.262Z"/><path stroke="#44FFA1" d="M90.378 85.201c12.77 8.614 22.564 18.987 28.086 28.774 5.539 9.815 6.708 18.892 2.548 25.06-4.161 6.169-13.015 8.485-24.19 7.026-11.143-1.454-24.43-6.649-37.2-15.262-12.77-8.614-22.564-18.987-28.086-28.774-5.539-9.815-6.708-18.892-2.548-25.06 4.161-6.169 13.015-8.485 24.19-7.026 11.143 1.454 24.43 6.65 37.2 15.263Z"/><path stroke="#44FFA1" d="M101.378 68.201c12.77 8.614 22.564 18.987 28.086 28.774 5.539 9.815 6.708 18.892 2.548 25.06-4.161 6.169-13.015 8.485-24.191 7.026-11.142-1.454-24.429-6.649-37.199-15.262-12.77-8.614-22.564-18.987-28.086-28.774-5.539-9.815-6.708-18.892-2.548-25.06 4.161-6.169 13.015-8.485 24.19-7.026 11.143 1.454 24.43 6.65 37.2 15.262Z" opacity=".75"/><path stroke="#44FFA1" d="M113.378 50.202c12.77 8.613 22.564 18.986 28.086 28.773 5.539 9.815 6.708 18.892 2.548 25.06-4.161 6.169-13.015 8.485-24.191 7.026-11.142-1.454-24.429-6.649-37.199-15.263-12.77-8.613-22.564-18.986-28.086-28.773-5.539-9.815-6.708-18.892-2.548-25.06 4.161-6.169 13.015-8.485 24.19-7.026 11.143 1.454 24.43 6.65 37.2 15.263Z" opacity=".5"/><path stroke="#44FFA1" d="M126.378 32.202c12.77 8.613 22.564 18.986 28.086 28.773 5.539 9.815 6.708 18.892 2.548 25.06-4.161 6.169-13.015 8.485-24.191 7.026-11.142-1.454-24.429-6.65-37.199-15.263S73.058 58.813 67.536 49.026c-5.539-9.815-6.708-18.892-2.548-25.06 4.161-6.169 13.015-8.485 24.19-7.026 11.143 1.454 24.43 6.65 37.2 15.263Z" opacity=".25"/></svg>