<svg xmlns="http://www.w3.org/2000/svg" width="202" height="317" fill="none"><path stroke="#44FFA1" d="M55.762 171.883c13.843-26.034 31.69-46.75 49.332-59.205 17.669-12.473 34.994-16.577 47.905-9.712 12.911 6.865 19.197 23.522 18.736 45.145-.46 21.591-7.655 47.971-21.497 74.006-13.843 26.034-31.69 46.75-49.333 59.205-17.668 12.473-34.993 16.577-47.904 9.712-12.91-6.865-19.197-23.522-18.736-45.145.46-21.591 7.654-47.971 21.497-74.006Z"/><path stroke="#44FFA1" d="M19.762 152.883c13.843-26.034 31.69-46.75 49.332-59.205C86.763 81.204 104.088 77.101 117 83.966c12.911 6.865 19.197 23.522 18.736 45.145-.46 21.591-7.655 47.971-21.497 74.006-13.843 26.034-31.69 46.75-49.333 59.205-17.668 12.473-34.993 16.577-47.904 9.712-12.91-6.865-19.197-23.522-18.736-45.145.46-21.591 7.655-47.971 21.497-74.006Z"/><path stroke="#44FFA1" d="M-14.355 134.353C-.51 108.317 17.238 87.548 34.722 75.008c17.512-12.56 34.614-16.775 47.277-10.042 12.663 6.733 18.732 23.268 18.112 44.81-.62 21.507-7.913 47.836-21.756 73.871-13.844 26.036-31.593 46.805-49.077 59.345-17.512 12.561-34.614 16.775-47.277 10.042-12.663-6.733-18.732-23.268-18.112-44.81.62-21.507 7.913-47.836 21.756-73.871Z" opacity=".75"/><path stroke="#44FFA1" d="M-51.238 113.883c13.843-26.034 31.69-46.75 49.332-59.205C15.763 42.205 33.088 38.101 46 44.966c12.91 6.865 19.197 23.522 18.736 45.145-.46 21.591-7.655 47.971-21.497 74.006-13.843 26.034-31.69 46.75-49.333 59.205-17.668 12.473-34.993 16.577-47.904 9.712-12.91-6.865-19.197-23.522-18.736-45.145.46-21.591 7.654-47.971 21.497-74.006Z" opacity=".5"/><path stroke="#44FFA1" d="M-87.355 95.353c13.844-26.036 31.593-46.805 49.077-59.345 17.512-12.56 34.614-16.775 47.277-10.042C21.662 32.7 27.73 49.233 27.11 70.776c-.619 21.507-7.912 47.836-21.755 73.871-13.844 26.036-31.593 46.805-49.077 59.345-17.512 12.561-34.614 16.775-47.277 10.042-12.663-6.733-18.732-23.268-18.112-44.81.62-21.507 7.913-47.836 21.756-73.871Z" opacity=".25"/></svg>